# xmcd CD database file
#
# Track frame offsets:
#	150
#	12787
#	35110
#	50927
#	65237
#	81032
#	96302
#	112582
#	127332
#	139800
#
# Disc length: 2140 seconds
#
# Revision: 0
# Processed by: cddbd v1.5.2PL0 Copyright (c) Steve Scherf et al.
# Submitted via: CdAid (MTCDDB.DLL V2003.07.15)
#
DISCID=92085a0a
DTITLE=Zach Taylor - On The Boulevard
DYEAR=1996
DGENRE=Country
TTITLE0=Money Ain't Got No Home
TTITLE1=Big Ole John
TTITLE2=South Pa
TTITLE3=Look At That Girl
TTITLE4=Golden Watch And Chain
TTITLE5=Here Goes Nothin'
TTITLE6=Down On The Boulevard
TTITLE7=Mud Rassler
TTITLE8=Memphis Was On A Roll
TTITLE9=Barney's Rig
EXTD=ID3G:   2 YEAR: 1996
EXTT0=
EXTT1=
EXTT2=
EXTT3=
EXTT4=
EXTT5=
EXTT6=
EXTT7=
EXTT8=
EXTT9=
PLAYORDER=
